<svg version="1.1" id="Layer_1" xmlns="http://www.w3.org/2000/svg" xmlns:xlink="http://www.w3.org/1999/xlink" x="0px" y="0px"
	 width="100%" viewBox="0 0 496 496" enable-background="new 0 0 496 496" xml:space="preserve">
<path fill="#000000" opacity="1.000000" stroke="none" 
	d="
M301.677521,281.901184 
	C293.511658,284.647095 285.483673,286.113922 277.284180,286.132935 
	C241.293777,286.216400 205.303009,286.211395 169.312531,286.146301 
	C157.005157,286.124023 149.945267,277.615906 152.710968,266.452759 
	C154.372360,259.746979 160.179062,255.658371 168.144547,255.656860 
	C203.302048,255.650146 238.459778,255.734680 273.616913,255.624176 
	C287.131042,255.581711 299.200500,251.673462 308.434357,241.123993 
	C319.317230,228.690567 322.101410,214.377991 316.170715,199.252853 
	C310.281860,184.234482 298.830750,174.469543 282.361572,173.429916 
	C265.762543,172.382050 249.055771,173.062408 232.396683,172.925354 
	C229.072296,172.898010 225.737518,172.726791 222.429504,172.399658 
	C214.516693,171.617142 209.476013,166.358841 208.778870,158.347244 
	C208.171616,151.368713 212.590683,144.952957 219.531631,142.825989 
	C221.929367,142.091217 224.388443,141.800705 226.921234,141.808945 
	C243.583374,141.863220 260.245819,141.812759 276.907990,141.860367 
	C314.395538,141.967484 344.581451,168.175201 349.072296,205.392227 
	C353.377869,241.073868 332.145325,270.932800 301.677521,281.901184 
z"/>
<path fill="#000000" opacity="1.000000" stroke="none" 
	d="
M173.303497,208.705460 
	C153.418365,187.478500 146.975037,162.845322 155.565247,135.583191 
	C164.532928,107.123100 185.162186,90.983063 214.445282,85.854500 
	C216.230377,85.541878 218.099884,85.663956 219.930145,85.663612 
	C257.743958,85.656555 295.557739,85.658081 333.371552,85.665344 
	C343.304840,85.667252 349.057953,90.671921 349.351929,99.532898 
	C349.668518,109.076706 343.735962,115.524315 333.924866,116.138145 
	C330.938019,116.325012 327.930023,116.177711 324.931732,116.177437 
	C291.615662,116.174416 258.297546,116.387596 224.984268,116.080582 
	C206.525833,115.910484 190.198166,127.883499 184.758514,144.785172 
	C179.237732,161.938934 185.480865,180.207047 200.657639,191.135361 
	C208.380264,196.696182 217.281342,198.590057 226.620132,198.629944 
	C243.777634,198.703232 260.936279,198.580536 278.093079,198.715576 
	C285.564209,198.774368 290.731293,203.027161 292.620087,210.073303 
	C294.415710,216.771774 291.649445,223.568558 285.667694,227.312180 
	C283.320526,228.781128 280.775238,229.310760 278.054565,229.309067 
	C258.398132,229.296799 238.726105,229.781601 219.089859,229.149933 
	C201.420822,228.581573 186.350479,221.067154 173.303497,208.705460 
z"/>
<path fill="#000000" opacity="1.000000" stroke="none" 
	d="
M181.018311,301.665924 
	C190.065170,301.873596 195.493881,305.669678 197.674881,312.998779 
	C199.571045,319.370789 196.960327,326.214905 191.210617,329.945129 
	C184.574142,334.250671 176.033371,333.916016 170.246811,329.123718 
	C165.112625,324.871704 163.210892,317.345764 165.997559,310.970734 
	C168.730652,304.718353 173.655823,301.546478 181.018311,301.665924 
M187.046066,322.362061 
	C190.597244,316.019836 188.548706,310.021240 182.552628,309.232727 
	C178.493195,308.698914 175.922211,310.767059 174.322617,314.210754 
	C172.596405,317.927032 174.024872,321.048401 176.807297,323.499084 
	C180.108917,326.407013 183.453751,325.779572 187.046066,322.362061 
z"/>
<path fill="#000000" opacity="1.000000" stroke="none" 
	d="
M344.359100,332.302826 
	C340.621582,331.881287 340.217682,328.780579 338.843964,326.648773 
	C337.837402,325.086670 336.743622,324.124725 334.812286,324.403961 
	C332.559448,324.729736 332.290863,326.412415 332.463318,328.133453 
	C332.797729,331.470123 331.350372,332.469330 328.130859,332.408203 
	C324.788666,332.344757 323.759766,330.772644 323.777588,327.771362 
	C323.820068,320.607574 323.836761,313.442719 323.753387,306.279572 
	C323.717682,303.212860 324.816315,301.549774 328.106140,301.705688 
	C332.915070,301.933594 337.778870,301.070740 342.535400,302.287628 
	C349.747620,304.132782 353.694763,312.282471 349.388367,318.298157 
	C346.337250,322.560364 347.252441,325.311615 349.778656,328.716888 
	C350.353699,329.492096 350.870331,330.417328 350.450684,331.619019 
	C348.749359,332.939667 346.696899,332.166229 344.359100,332.302826 
M336.651459,309.007019 
	C334.733521,309.081146 332.805511,309.338806 332.816650,311.817017 
	C332.825867,313.867889 332.461945,316.381927 335.571625,316.758026 
	C338.613098,317.125824 341.659821,316.536316 342.258270,313.219696 
	C342.823181,310.089081 340.167633,309.149719 336.651459,309.007019 
z"/>
<path fill="#000000" opacity="1.000000" stroke="none" 
	d="
M281.624817,314.582916 
	C283.162720,305.547302 289.250702,301.297089 299.560760,301.680908 
	C307.422821,301.973572 313.780487,307.771179 314.333618,315.152313 
	C315.002258,324.074554 310.318451,330.147644 301.934509,332.389160 
	C290.774445,335.372955 279.708710,326.646240 281.624817,314.582916 
M304.987579,313.693512 
	C302.881348,310.252319 300.003510,308.219635 295.865723,309.522980 
	C292.632843,310.541229 290.575073,312.787628 290.313873,316.411285 
	C290.056305,319.985474 291.554138,322.524109 294.670441,324.104248 
	C297.245209,325.409760 299.859650,325.245789 302.229309,323.617004 
	C305.533569,321.345703 306.204224,318.102814 304.987579,313.693512 
z"/>
<path fill="#000000" opacity="1.000000" stroke="none" 
	d="
M247.033020,332.360840 
	C244.195999,332.433502 242.790497,331.539917 242.807907,328.919434 
	C242.859787,321.112244 242.657684,313.298187 242.922119,305.499298 
	C243.129898,299.370880 247.680328,302.378235 250.532791,301.963654 
	C251.773834,303.721863 251.305740,305.434540 251.329315,307.047943 
	C251.420898,313.311798 254.418884,315.520447 260.402863,313.549591 
	C264.064911,312.343475 262.784760,309.098480 262.675568,306.745087 
	C262.467377,302.258209 264.623291,301.259430 268.462433,301.744507 
	C270.202393,301.964325 271.261261,302.698486 271.263184,304.538574 
	C271.272583,313.622040 271.267456,322.705536 271.267456,331.668030 
	C263.387817,333.156921 262.844055,332.929688 262.863800,325.763855 
	C262.876038,321.322479 260.484161,321.087799 257.138641,321.095734 
	C253.622742,321.104065 250.861725,321.286346 251.250137,326.075867 
	C251.465088,328.726440 252.567001,332.576843 247.033020,332.360840 
z"/>
<path fill="#000000" opacity="1.000000" stroke="none" 
	d="
M136.722000,321.551208 
	C135.029022,322.871307 135.311584,324.442078 135.247787,325.909851 
	C134.948914,332.786987 134.837189,332.878876 126.744179,331.861633 
	C126.744179,322.740387 126.723007,313.504639 126.759056,304.269104 
	C126.768082,301.957916 128.493225,301.667786 130.254639,301.734741 
	C132.146561,301.806702 134.519012,301.153046 135.062027,303.985901 
	C135.309601,305.277435 135.390091,306.662415 135.218658,307.961792 
	C134.596634,312.676422 136.747528,313.891144 141.211212,313.888519 
	C145.789612,313.885803 146.937012,312.023438 146.745651,307.876099 
	C146.632248,305.418274 145.338959,301.875854 150.123596,301.669861 
	C153.615616,301.519501 155.408356,302.486511 155.292740,306.363922 
	C155.099426,312.847382 155.255829,319.340790 155.233353,325.829895 
	C155.209381,332.747772 154.442886,333.293549 147.141098,331.654694 
	C145.568970,328.523743 148.410645,324.225342 145.381104,321.832886 
	C143.227432,320.132080 139.917465,321.143585 136.722000,321.551208 
z"/>
<path fill="#000000" opacity="1.000000" stroke="none" 
	d="
M406.686340,317.440338 
	C408.655273,322.371460 410.459473,326.955139 412.413086,331.918335 
	C408.002014,332.288940 404.205414,333.756287 401.638458,328.784363 
	C400.177185,325.954071 390.485870,326.327484 388.628204,329.266357 
	C386.029572,333.377502 382.701752,332.506622 378.188751,331.729462 
	C382.506622,321.991333 386.435638,312.563843 390.891296,303.392212 
	C392.427002,300.231079 399.388611,301.008179 400.969147,304.295990 
	C402.982239,308.483612 404.685089,312.820404 406.686340,317.440338 
M397.186890,319.684204 
	C398.500275,317.020599 396.701477,315.279297 395.418915,312.806427 
	C393.878448,314.988251 392.728119,316.690674 392.875702,318.876892 
	C393.961548,320.183380 395.275391,320.043091 397.186890,319.684204 
z"/>
<path fill="#000000" opacity="1.000000" stroke="none" 
	d="
M104.046082,320.795166 
	C101.792694,320.073181 99.836693,319.615265 97.980545,318.898682 
	C94.443138,317.533020 91.996040,315.071167 92.004097,311.107849 
	C92.012764,306.840942 94.227402,303.612946 98.311157,302.452271 
	C103.340416,301.022858 108.500793,301.006531 113.468750,303.130615 
	C115.875259,304.159515 116.767570,305.700928 115.519630,308.266083 
	C114.390091,310.587921 113.009766,311.399109 110.353302,310.451874 
	C107.707993,309.508636 104.887505,306.783417 101.761864,310.176819 
	C103.282738,312.764740 105.785233,313.137299 108.130508,313.833710 
	C114.318542,315.671295 117.290543,319.036682 116.918610,323.692200 
	C116.519302,328.690521 113.091141,331.614777 106.568634,332.635223 
	C101.716568,333.394287 97.355789,332.077942 93.180008,329.741180 
	C90.856522,328.440979 90.361000,326.819824 91.581909,324.367188 
	C92.877373,321.764771 94.505669,321.613983 96.831711,322.871521 
	C98.584145,323.818939 100.438805,324.605560 102.309731,325.296478 
	C103.784203,325.840973 105.446884,325.903839 106.297050,324.311584 
	C107.294113,322.444122 105.750732,321.664093 104.046082,320.795166 
z"/>
<path fill="#000000" opacity="1.000000" stroke="none" 
	d="
M230.927734,305.218811 
	C236.643494,315.389313 232.227997,323.475616 220.972839,324.249146 
	C219.063477,324.380402 216.968811,323.886902 216.298111,326.760529 
	C214.858124,332.930023 214.752853,332.905457 207.721039,331.721100 
	C207.721039,322.735565 207.709641,313.632355 207.734619,304.529205 
	C207.737961,303.312622 208.095154,301.926331 209.525497,301.963867 
	C216.676987,302.151428 224.241425,299.554230 230.927734,305.218811 
M223.960220,310.201294 
	C221.410309,309.100677 218.576935,306.344421 216.518234,310.442871 
	C215.729980,312.012115 215.485397,314.662933 217.179779,316.075439 
	C219.014175,317.604675 221.365646,316.952026 223.283356,315.826721 
	C225.336456,314.621948 225.662140,312.766815 223.960220,310.201294 
z"/>
<path fill="#000000" opacity="1.000000" stroke="none" 
	d="
M365.010254,301.726807 
	C369.347504,301.237030 370.350189,303.279968 370.274109,306.753082 
	C370.135590,313.076599 370.267395,319.405731 370.257629,325.732452 
	C370.246826,332.747131 369.668213,333.175598 361.731232,331.672272 
	C361.731232,322.684387 361.727264,313.577698 361.734467,304.471008 
	C361.735931,302.621490 362.744019,301.767059 365.010254,301.726807 
z"/>
<path fill="#000000" opacity="1.000000" stroke="none" 
	d="
M220.607910,346.896027 
	C223.172928,346.210449 225.512848,346.949432 225.752350,348.994263 
	C226.021622,351.293182 227.205322,353.926392 225.739517,356.147766 
	C224.647980,357.801910 222.640976,357.948395 220.794052,357.535706 
	C219.206711,357.181030 217.849091,356.122284 218.399002,354.393585 
	C219.174133,351.956818 216.265167,348.569275 220.607910,346.896027 
z"/>
<path fill="#000000" opacity="1.000000" stroke="none" 
	d="
M246.259811,350.296082 
	C246.333221,353.357635 246.783401,356.333923 243.302597,357.138184 
	C241.481415,357.558960 238.810226,358.095642 238.207733,355.654236 
	C237.543976,352.964630 236.324173,349.347137 239.244598,347.511230 
	C241.682266,345.978851 244.704712,346.611420 246.259811,350.296082 
z"/>
<path fill="#000000" opacity="1.000000" stroke="none" 
	d="
M267.566589,352.025696 
	C267.621521,348.478180 269.046936,346.530731 272.388977,346.907776 
	C275.205078,347.225555 276.168152,349.357422 275.988068,351.905762 
	C275.819305,354.293091 276.007874,357.221893 272.591064,357.547363 
	C269.008453,357.888641 267.595367,355.732056 267.566589,352.025696 
z"/>
<path fill="#000000" opacity="1.000000" stroke="none" 
	d="
M278.684143,348.256042 
	C280.888031,346.699677 282.932159,346.217926 284.765839,348.143494 
	C286.283386,349.737122 286.077423,351.545197 284.642426,353.062805 
	C283.306763,354.475342 285.735992,355.412720 284.718262,356.975891 
	C282.702545,357.757935 280.551208,357.340149 278.554077,356.869934 
	C277.459412,353.515900 280.008942,352.779114 281.668365,351.254578 
	C280.874207,350.032532 277.442841,351.647949 278.684143,348.256042 
z"/>
<path fill="#000000" opacity="1.000000" stroke="none" 
	d="
M214.353882,353.249756 
	C212.668411,355.703339 216.513611,354.216370 215.762268,356.544617 
	C214.031586,358.182831 211.237518,358.050232 209.755844,356.330475 
	C207.872620,354.144653 208.129120,350.710358 209.627396,348.327240 
	C211.171310,345.871582 213.798660,346.394562 216.835297,348.229736 
	C213.767792,349.243652 214.674164,351.335968 214.353882,353.249756 
z"/>
<path fill="#000000" opacity="1.000000" stroke="none" 
	d="
M261.084351,350.650970 
	C258.118042,350.877625 257.837891,349.589844 259.432831,347.873840 
	C260.614990,346.601929 262.381805,346.385101 263.974030,347.429413 
	C265.495972,348.427551 266.487244,350.006866 265.492432,351.620300 
	C264.465179,353.286255 264.269196,354.805847 264.877136,356.391785 
	C264.019165,357.499817 262.961426,357.371674 262.011627,357.361725 
	C260.576172,357.346710 258.868042,357.673370 258.195312,355.873230 
	C257.523193,354.074707 258.903534,353.246765 260.088562,352.302704 
	C260.593475,351.900482 261.879517,351.910675 261.084351,350.650970 
z"/>
<path fill="#000000" opacity="1.000000" stroke="none" 
	d="
M231.352081,346.842621 
	C232.992294,346.922760 234.389420,346.545532 235.657303,348.148041 
	C232.535660,350.313538 234.114655,354.171234 232.603775,357.624817 
	C228.817093,355.181213 231.752747,350.385315 228.679413,348.081329 
	C228.391052,347.865143 230.008347,346.996521 231.352081,346.842621 
z"/>
<path fill="#000000" opacity="1.000000" stroke="none" 
	d="
M291.341949,356.670288 
	C289.507751,354.448029 290.085571,351.379150 287.608887,350.003998 
	C288.328156,347.775940 289.867249,346.990540 291.532471,347.380798 
	C293.624634,347.871124 293.280060,349.954132 293.191742,351.506989 
	C293.088043,353.330444 294.020996,355.543579 291.341949,356.670288 
z"/>
</svg>